<svg width="414" height="71" viewBox="0 0 414 71" fill="none" xmlns="http://www.w3.org/2000/svg">
<path d="M30.8692 52.304C31.1465 52.304 31.3978 52.4167 31.6232 52.642L33.5992 54.8C32.0738 56.568 30.2192 57.946 28.0352 58.934C25.8685 59.922 23.2512 60.416 20.1832 60.416C17.4965 60.416 15.0612 59.9567 12.8772 59.038C10.6932 58.102 8.82983 56.802 7.28716 55.138C5.74449 53.4567 4.54849 51.446 3.69916 49.106C2.84983 46.766 2.42516 44.192 2.42516 41.384C2.42516 38.576 2.87583 36.002 3.77716 33.662C4.69583 31.322 5.97849 29.3113 7.62516 27.63C9.27183 25.9487 11.2392 24.6487 13.5272 23.73C15.8325 22.794 18.3718 22.326 21.1452 22.326C23.8838 22.326 26.2412 22.7507 28.2172 23.6C30.2105 24.4493 31.9785 25.602 33.5212 27.058L31.8832 29.372C31.7618 29.5453 31.6232 29.6927 31.4672 29.814C31.3112 29.918 31.0858 29.97 30.7912 29.97C30.5658 29.97 30.3232 29.892 30.0632 29.736C29.8205 29.5627 29.5258 29.3547 29.1792 29.112C28.8325 28.8693 28.4252 28.6093 27.9572 28.332C27.4892 28.0547 26.9345 27.7947 26.2932 27.552C25.6518 27.3093 24.9065 27.11 24.0572 26.954C23.2078 26.7807 22.2285 26.694 21.1192 26.694C19.1258 26.694 17.2972 27.0407 15.6332 27.734C13.9865 28.41 12.5652 29.3807 11.3692 30.646C10.1732 31.9113 9.23716 33.454 8.56116 35.274C7.90249 37.094 7.57316 39.1307 7.57316 41.384C7.57316 43.7067 7.90249 45.778 8.56116 47.598C9.23716 49.418 10.1472 50.9607 11.2912 52.226C12.4525 53.474 13.8218 54.4273 15.3992 55.086C16.9765 55.7447 18.6752 56.074 20.4952 56.074C21.6045 56.074 22.6012 56.0133 23.4852 55.892C24.3692 55.7533 25.1838 55.5453 25.9292 55.268C26.6918 54.9907 27.3938 54.644 28.0352 54.228C28.6938 53.7947 29.3525 53.2833 30.0112 52.694C30.3058 52.434 30.5918 52.304 30.8692 52.304Z" fill="#3A7BBF"/>
<path d="M78.0888 55.996C79.6315 55.996 81.0095 55.736 82.2228 55.216C83.4362 54.696 84.4588 53.968 85.2908 53.032C86.1402 52.096 86.7815 50.978 87.2148 49.678C87.6655 48.378 87.8908 46.948 87.8908 45.388V22.742H92.9088V45.388C92.9088 47.5373 92.5622 49.5307 91.8688 51.368C91.1928 53.2053 90.2135 54.8 88.9308 56.152C87.6655 57.4867 86.1142 58.5353 84.2768 59.298C82.4395 60.0607 80.3768 60.442 78.0888 60.442C75.8008 60.442 73.7382 60.0607 71.9008 59.298C70.0635 58.5353 68.5035 57.4867 67.2208 56.152C65.9382 54.8 64.9502 53.2053 64.2568 51.368C63.5808 49.5307 63.2428 47.5373 63.2428 45.388V22.742H68.2608V45.362C68.2608 46.922 68.4775 48.352 68.9108 49.652C69.3615 50.952 70.0028 52.07 70.8348 53.006C71.6842 53.942 72.7155 54.6787 73.9288 55.216C75.1595 55.736 76.5462 55.996 78.0888 55.996Z" fill="#602B6F"/>
<path d="M130.529 44.452V60H125.511V22.742H136.041C138.399 22.742 140.435 22.9847 142.151 23.47C143.867 23.938 145.28 24.6227 146.389 25.524C147.516 26.4253 148.348 27.5173 148.885 28.8C149.423 30.0653 149.691 31.4867 149.691 33.064C149.691 34.3813 149.483 35.612 149.067 36.756C148.651 37.9 148.045 38.9313 147.247 39.85C146.467 40.7513 145.505 41.5227 144.361 42.164C143.235 42.8053 141.952 43.2907 140.513 43.62C141.137 43.984 141.692 44.5127 142.177 45.206L153.045 60H148.573C147.655 60 146.979 59.6447 146.545 58.934L136.873 45.622C136.579 45.206 136.258 44.9113 135.911 44.738C135.565 44.5473 135.045 44.452 134.351 44.452H130.529ZM130.529 40.786H135.807C137.281 40.786 138.572 40.6127 139.681 40.266C140.808 39.902 141.744 39.3993 142.489 38.758C143.252 38.0993 143.824 37.3193 144.205 36.418C144.587 35.5167 144.777 34.52 144.777 33.428C144.777 31.2093 144.041 29.5367 142.567 28.41C141.111 27.2833 138.936 26.72 136.041 26.72H130.529V40.786Z" fill="#B83869"/>
<path d="M212.51 60H208.61C208.159 60 207.795 59.8873 207.518 59.662C207.241 59.4367 207.033 59.1507 206.894 58.804L203.41 49.808H186.692L183.208 58.804C183.087 59.116 182.879 59.3933 182.584 59.636C182.289 59.8787 181.925 60 181.492 60H177.592L192.49 22.742H197.612L212.51 60ZM188.096 46.168H202.006L196.156 31.01C195.775 30.074 195.402 28.904 195.038 27.5C194.847 28.2107 194.657 28.8693 194.466 29.476C194.293 30.0653 194.119 30.5853 193.946 31.036L188.096 46.168Z" fill="#C45537"/>
<path d="M265.976 22.742V26.98H253.938V60H248.894V26.98H236.804V22.742H265.976Z" fill="#D9803D"/>
<path d="M317.63 22.742V26.85H299.742V39.226H314.224V43.178H299.742V55.892H317.63V60H294.672V22.742H317.63Z" fill="#F1C35C"/>
<path d="M380.579 41.384C380.579 44.1747 380.137 46.714 379.253 49.002C378.369 51.29 377.121 53.2487 375.509 54.878C373.897 56.5073 371.964 57.7727 369.711 58.674C367.457 59.558 364.961 60 362.223 60H348.287V22.742H362.223C364.961 22.742 367.457 23.1927 369.711 24.094C371.964 24.978 373.897 26.2433 375.509 27.89C377.121 29.5193 378.369 31.478 379.253 33.766C380.137 36.054 380.579 38.5933 380.579 41.384ZM375.405 41.384C375.405 39.096 375.093 37.0507 374.469 35.248C373.845 33.4453 372.961 31.92 371.817 30.672C370.673 29.424 369.286 28.4707 367.657 27.812C366.027 27.1533 364.216 26.824 362.223 26.824H353.357V55.918H362.223C364.216 55.918 366.027 55.5887 367.657 54.93C369.286 54.2713 370.673 53.3267 371.817 52.096C372.961 50.848 373.845 49.3227 374.469 47.52C375.093 45.7173 375.405 43.672 375.405 41.384Z" fill="#D6833A"/>
<path d="M401.057 26H399.107C398.881 26 398.699 25.9437 398.561 25.831C398.422 25.7183 398.318 25.5753 398.249 25.402L396.507 20.904H388.148L386.406 25.402C386.345 25.558 386.241 25.6967 386.094 25.818C385.946 25.9393 385.764 26 385.548 26H383.598L391.047 7.371H393.608L401.057 26ZM388.85 19.084H395.805L392.88 11.505C392.689 11.037 392.503 10.452 392.321 9.75C392.225 10.1053 392.13 10.4347 392.035 10.738C391.948 11.0327 391.861 11.2927 391.775 11.518L388.85 19.084ZM410.812 26H408.29V7.371H410.812V26Z" fill="#3A7BBF"/>
</svg>
